# xmcd
#
# Track frame offsets:
#	150
#	40238
#	62174
#	95805
#	118319
#	150886
#	154530
#	166459
#
# Disc length: 2909 seconds
#
# Revision: 1
# Processed by: cddbd v1.5.2PL0 Copyright (c) Steve Scherf et al.
# Submitted via: audiograbber 1.83.01
#
DISCID=610b5b08
DTITLE=Grateful Dead - 69-12-05 Fillmore West, San Francisco CA
DYEAR=1900
DGENRE=
TTITLE0=Dancing In The Streets
TTITLE1=Dire Wolf
TTITLE2=China Cat Sunflower
TTITLE3=Jam > I Know You Rider
TTITLE4=High Time
TTITLE5=Uncle John's Band Jam
TTITLE6=The Main Ten
TTITLE7=It's All Over Now Baby Blue
EXTD=
EXTT0=
EXTT1=
EXTT2=
EXTT3=
EXTT4=
EXTT5=
EXTT6=
EXTT7=
PLAYORDER=
